<?xml version="1.0" encoding="UTF-8"?>
<svg width="1182px" height="344px" viewBox="0 0 1182 344" version="1.1" xmlns="http://www.w3.org/2000/svg" xmlns:xlink="http://www.w3.org/1999/xlink">
    <title>Logotype Black BG</title>
    <g id="Logotype-Black-BG" stroke="none" stroke-width="1" fill="none" fill-rule="evenodd">
        <g id="Black-BG" transform="translate(0.000000, 0.000000)">
            <path d="M60.0751554,43.7733544 C53.4326746,43.7733544 44.9808952,45.5846656 44.9808952,60.9818173 L44.9808952,158.188853 C44.9808952,173.887889 53.132802,175.699201 60.0751554,175.699201 C67.0175088,175.699201 74.8675303,173.887889 74.8675303,158.188853 L74.8675303,141.887052 L120.150311,141.887052 L120.150311,156.679427 C120.150311,193.510428 95.3967304,219.17067 60.0751554,219.17067 C24.4527014,219.17067 0,193.510428 0,156.679427 L0,62.4912433 C0,25.6602422 24.4527014,0 60.0751554,0 C95.3967304,0 120.150311,25.6602422 120.150311,62.4912433 L120.150311,73.962881 L74.8675303,73.962881 L74.8675303,60.9818173 C74.8675303,45.5846656 66.4147446,43.7733544 60.0751554,43.7733544" id="Fill-32" fill="#B97B15"></path>
            <path d="M181.61444,61.2830987 L181.61444,158.189255 C181.61444,173.586407 190.066219,175.396712 196.7087,175.396712 C201.840749,175.396712 211.500069,173.887286 211.500069,158.189255 L211.500069,61.2830987 C211.500069,45.5840619 203.651053,43.7737569 196.7087,43.7737569 C189.76534,43.7737569 181.61444,45.5840619 181.61444,61.2830987 M136.632538,156.679829 L136.632538,62.7925247 C136.632538,25.9615237 161.086246,0.301281432 196.7087,0.301281432 C231.727384,0.301281432 256.783855,25.9615237 256.783855,62.7925247 L256.783855,156.679829 C256.783855,193.509824 231.727384,218.869187 196.7087,218.869187 C161.086246,218.869187 136.632538,193.509824 136.632538,156.679829" id="Fill-33" fill="#B97B15"></path>
            <polygon id="Fill-34" fill="#B97B15" points="278.81906 216.151617 278.81906 3.01865077 324.101841 3.01865077 324.101841 172.680147 373.61202 172.680147 373.61202 216.151617"></polygon>
            <path d="M471.720988,141.283684 L461.155006,70.9444315 L449.683368,141.283684 L471.720988,141.283684 Z M442.136238,180.226875 L435.191872,216.151214 L390.209971,216.151214 L436.701298,3.01925454 L485.002931,3.01925454 L530.891494,216.151214 L485.909592,216.151214 L479.268118,180.226875 L442.136238,180.226875 Z" id="Fill-35" fill="#B97B15"></path>
            <polygon id="Fill-36" fill="#B97B15" points="625.25789 216.151617 592.654288 108.981363 592.654288 216.151617 547.371508 216.151617 547.371508 3.01865077 590.239207 3.01865077 622.843815 112.302101 622.843815 3.01865077 668.127601 3.01865077 668.127601 216.151617"></polygon>
            <path d="M810.010225,156.679628 C810.010225,193.510629 785.254633,219.170871 749.93507,219.170871 C714.612489,219.170871 690.159787,193.510629 690.159787,156.679628 L690.159787,62.7923235 C690.159787,25.6604435 714.612489,0.000201256802 749.93507,0.000201256802 C784.651868,0.000201256802 809.10457,25.0566731 810.010225,60.9810122 L764.726439,60.9810122 C764.726439,45.5848669 756.877423,43.7735557 749.93507,43.7735557 C742.990704,43.7735557 735.141689,45.5848669 735.141689,60.9810122 L735.141689,158.189054 C735.141689,173.586205 743.594475,175.397517 749.93507,175.397517 C756.273653,175.397517 764.726439,173.586205 764.726439,158.189054 L764.726439,145.811761 L750.235949,145.811761 L750.235949,106.566684 L810.010225,106.566684 L810.010225,156.679628 Z" id="Fill-37" fill="#B97B15"></path>
            <polygon id="Fill-38" fill="#B97B15" points="876.089878 47.0938904 876.089878 89.3588251 918.655691 89.3588251 918.655691 128.906793 876.089878 128.906793 876.089878 172.680147 931.93864 172.680147 931.93864 216.151617 831.107976 216.151617 831.107976 3.01865077 931.93864 3.01865077 931.93864 47.0938904"></polygon>
            <polygon id="Fill-39" fill="#B97B15" points="952.310055 216.151617 952.310055 3.01865077 997.593842 3.01865077 997.593842 172.680147 1047.10301 172.680147 1047.10301 216.151617"></polygon>
            <path d="M1106.81198,61.2830987 L1106.81198,158.189255 C1106.81198,173.586407 1115.26477,175.396712 1121.90624,175.396712 C1127.03829,175.396712 1136.69761,173.887286 1136.69761,158.189255 L1136.69761,61.2830987 C1136.69761,45.5840619 1128.8496,43.7737569 1121.90624,43.7737569 C1114.96288,43.7737569 1106.81198,45.5840619 1106.81198,61.2830987 M1061.83008,156.679829 L1061.83008,62.7925247 C1061.83008,25.9615237 1086.28379,0.301281432 1121.90624,0.301281432 C1156.92593,0.301281432 1181.98241,25.9615237 1181.98241,62.7925247 L1181.98241,156.679829 C1181.98241,193.509824 1156.92593,218.869187 1121.90624,218.869187 C1086.28379,218.869187 1061.83008,193.509824 1061.83008,156.679829" id="Fill-40" fill="#B97B15"></path>
            <path d="M417.428846,288.319086 L401.895846,288.319086 C401.895846,283.45974 398.938377,282.297482 396.613861,282.297482 C394.183685,282.297482 391.75351,283.775713 391.75351,286.946514 C391.75351,297.934129 418.167459,302.265176 418.167459,323.39714 C418.167459,335.970659 409.820333,343.999799 396.825181,343.999799 C384.358328,343.999799 375.377244,335.230034 375.377244,322.340542 L391.119551,322.340542 C391.119551,327.517873 394.395005,328.574471 396.931847,328.574471 C399.361017,328.574471 402.108172,327.306553 402.108172,323.60846 C402.108172,311.986886 376.116862,307.548167 376.116862,287.051168 C376.116862,275.112614 384.358328,267.293788 396.825181,267.293788 C408.765747,267.293788 417.428846,275.957893 417.428846,288.319086" id="Fill-41" fill="#F5F3EF"></path>
            <polygon id="Fill-42" fill="#F5F3EF" points="470.088695 283.776015 470.088695 342.943502 454.135068 342.943502 454.135068 283.776015 443.358772 283.776015 443.358772 268.350688 480.865996 268.350688 480.865996 283.776015"></polygon>
            <path d="M534.09681,268.350587 L549.945784,268.350587 L549.945784,322.235083 C549.945784,335.018915 541.282684,344 528.919479,344 C516.558286,344 507.894181,335.018915 507.894181,322.235083 L507.894181,268.350587 L523.743154,268.350587 L523.743154,322.763382 C523.743154,328.152033 526.700623,328.785992 528.919479,328.785992 C531.139342,328.785992 534.09681,328.152033 534.09681,322.763382 L534.09681,268.350587 Z" id="Fill-43" fill="#F5F3EF"></path>
            <path d="M595.348513,327.834349 L598.622961,327.834349 C602.427721,327.834349 605.914495,326.989071 605.914495,319.38257 L605.914495,292.227996 C605.914495,284.621495 602.7447,283.670557 598.622961,283.670557 L595.348513,283.670557 L595.348513,327.834349 Z M579.49954,268.350889 L600.525844,268.350889 C612.992697,268.350889 621.551142,276.802668 621.551142,292.123342 L621.551142,319.48823 C621.551142,334.807897 612.992697,342.943704 600.525844,342.943704 L579.49954,342.943704 L579.49954,268.350889 Z" id="Fill-44" fill="#F5F3EF"></path>
            <polygon id="Fill-45" fill="#F5F3EF" points="650.428575 342.943201 666.171889 342.943201 666.171889 268.350386 650.428575 268.350386"></polygon>
            <path d="M710.747855,288.741624 L710.747855,322.657421 C710.747855,328.046071 713.70633,328.679024 716.02984,328.679024 C717.826057,328.679024 721.208177,328.151731 721.208177,322.657421 L721.208177,288.741624 C721.208177,283.24832 718.461022,282.614361 716.02984,282.614361 C713.60067,282.614361 710.747855,283.24832 710.747855,288.741624 M695.004542,322.129121 L695.004542,289.269923 C695.004542,276.380432 703.562987,267.399347 716.02984,267.399347 C728.286379,267.399347 737.056144,276.380432 737.056144,289.269923 L737.056144,322.129121 C737.056144,335.018613 728.286379,343.895045 716.02984,343.895045 C703.562987,343.895045 695.004542,335.018613 695.004542,322.129121" id="Fill-46" fill="#F5F3EF"></path>
            <path d="M805.861317,288.319086 L790.329323,288.319086 C790.329323,283.45974 787.371854,282.297482 785.046332,282.297482 C782.617162,282.297482 780.18598,283.775713 780.18598,286.946514 C780.18598,297.934129 806.600935,302.265176 806.600935,323.39714 C806.600935,335.970659 798.253809,343.999799 785.258658,343.999799 C772.790799,343.999799 763.81072,335.230034 763.81072,322.340542 L779.553027,322.340542 C779.553027,327.517873 782.827476,328.574471 785.364318,328.574471 C787.794493,328.574471 790.541649,327.306553 790.541649,323.60846 C790.541649,311.986886 764.549333,307.548167 764.549333,287.051168 C764.549333,275.112614 772.790799,267.293788 785.258658,267.293788 C797.197211,267.293788 805.861317,275.957893 805.861317,288.319086" id="Fill-47" fill="#F5F3EF"></path>
        </g>
    </g>
</svg>